<?xml version="1.0" encoding="utf-8" ?>
<svg xmlns="http://www.w3.org/2000/svg" xmlns:xlink="http://www.w3.org/1999/xlink" width="57" height="53">
	<defs>
		<clipPath id="clip_0">
			<rect x="-159" y="-405" width="375" height="667" clip-rule="evenodd"/>
		</clipPath>
	</defs>
	<g clip-path="url(#clip_0)">
		<path fill="rgb(0,0,0)" stroke="none" transform="translate(0.999878 19.8539)" d="M22.1322 11.8879L48.7026 11.8206C49.4338 11.8311 50.0579 12.2155 50.3776 12.847C50.6973 13.4777 50.6339 14.2346 50.2138 14.8046L37.8516 31.5649C37.4989 32.0431 36.9395 32.3258 36.3451 32.3258L15.0665 32.3258C14.4951 32.3258 13.9549 32.0642 13.5995 31.6164L0.405164 14.9744C-0.040659 14.4129 -0.125861 13.6455 0.185885 12.9989C0.49697 12.3529 1.15018 11.9414 1.86746 11.9395L18.388 11.8972L18.388 1.87245C18.388 0.838147 19.2261 0 20.2605 0C21.2941 0 22.1322 0.838147 22.1322 1.87245L22.1322 11.8879ZM15.9713 28.5809L35.3993 28.5809L44.9927 15.5747L5.73786 15.6738L15.9713 28.5809Z" fill-rule="evenodd"/>
	</g>
	<defs>
		<clipPath id="clip_1">
			<rect x="-159" y="-405" width="375" height="667" clip-rule="evenodd"/>
		</clipPath>
	</defs>
	<g clip-path="url(#clip_1)">
		<path fill="rgb(0,0,0)" stroke="none" transform="translate(24.4625 10.4156)" d="M1.87179 19.8005C2.90544 19.8005 3.74359 18.9617 3.74359 17.928L3.74359 1.87246C3.74359 0.838807 2.90544 0 1.87179 0C0.838147 0 0 0.838807 0 1.87246L0 17.928C0 18.9617 0.838147 19.8005 1.87179 19.8005"/>
	</g>
	<defs>
		<clipPath id="clip_2">
			<rect x="-159" y="-405" width="375" height="667" clip-rule="evenodd"/>
		</clipPath>
	</defs>
	<g clip-path="url(#clip_2)">
		<path fill="rgb(0,0,0)" stroke="none" transform="translate(28.8279 0.00012207)" d="M1.87432 18.3055C2.20588 18.3055 2.54206 18.217 2.84654 18.0321L26.7506 3.47119C27.633 2.93356 27.913 1.78102 27.3754 0.898625C26.8371 0.0149054 25.6859 -0.263816 24.8021 0.273152L0.898131 14.834C0.0157321 15.3723 -0.264311 16.5242 0.273318 17.4073C0.626014 17.9865 1.24224 18.3055 1.87432 18.3055"/>
	</g>
	<defs>
		<clipPath id="clip_3">
			<rect x="-159" y="-405" width="375" height="667" clip-rule="evenodd"/>
		</clipPath>
	</defs>
	<g clip-path="url(#clip_3)">
		<path fill="rgb(0,0,0)" stroke="none" transform="translate(29.004 14.0891)" d="M27.832 1.32815C27.5308 0.339415 26.4846 -0.220009 25.4959 0.0818291L1.32832 7.43361C0.338927 7.73479 -0.219177 8.78032 0.0813402 9.76972C0.327038 10.5775 1.06942 11.0973 1.8719 11.0973C2.05221 11.0973 2.23648 11.0715 2.41745 11.016L26.5857 3.66426C27.5751 3.36308 28.1332 2.31755 27.832 1.32815"/>
	</g>
	<defs>
		<clipPath id="clip_4">
			<rect x="-159" y="-405" width="375" height="667" clip-rule="evenodd"/>
		</clipPath>
	</defs>
	<g clip-path="url(#clip_4)">
		<path fill="rgb(0,0,0)" stroke="none" transform="translate(8.36176 24.6167)" d="M1.87214 5.50986C2.05179 5.50986 2.23474 5.48411 2.41571 5.42929L8.23783 3.66449C9.22722 3.36463 9.78665 2.3191 9.48679 1.3297C9.18693 0.339643 8.13941 -0.218461 7.152 0.0807353L1.32989 1.84553C0.340491 2.14539 -0.218934 3.19093 0.0809231 4.18032C0.32596 4.98941 1.069 5.50986 1.87214 5.50986"/>
	</g>
</svg>
