<?xml version="1.0" encoding="utf-8" ?>
<svg xmlns="http://www.w3.org/2000/svg" xmlns:xlink="http://www.w3.org/1999/xlink" width="15" height="20">
	<defs>
		<clipPath id="clip_0">
			<rect x="-214.83826" y="-191.73523" width="371.77499" height="1364.1664" clip-rule="evenodd"/>
		</clipPath>
	</defs>
	<g clip-path="url(#clip_0)">
		<path fill="rgb(157,157,157)" stroke="none" transform="matrix(0.9914 0 0 0.9914 0.295654 0.596436)" d="M0.0140822 13.1729C0.272919 17.2988 3.89663 19.1653 7.36504 19.1653C10.8593 19.1653 14.6125 17.176 14.9748 13.3693C15.2592 10.2051 13.0648 7.57978 11.8731 6.15416L11.8688 6.14898L11.7394 6.00162C10.1087 4.08601 9.66868 2.21953 10.3675 0.328478C10.3934 0.2548 10.3675 0.156564 10.3158 0.0828868C10.2381 0.00920965 10.1605 -0.0153494 10.0569 0.00920965C8.01213 0.451273 5.17363 3.15277 5.07009 6.14898C4.21547 5.0369 4.49405 3.30384 4.52835 3.09049C4.53041 3.07768 4.53159 3.07035 4.53159 3.06896C4.58335 2.94617 4.53159 2.82337 4.42805 2.77425C4.32452 2.70058 4.1951 2.72514 4.11745 2.79881C1.91734 4.83722 -0.192987 9.83284 0.0140822 13.1729ZM1.33227 7.76637C1.97179 6.46313 3.00384 4.78519 3.73627 3.9554C3.65862 4.79041 4.05193 6.29633 5.16493 7.1559C5.24258 7.20502 5.34611 7.22957 5.44965 7.18046C5.5273 7.13134 5.57907 7.0331 5.57907 6.93487C5.29435 4.23337 7.75329 1.35996 9.69457 0.598627C9.17689 2.51423 9.69457 4.38072 11.2994 6.29633L11.4288 6.44368C11.4401 6.45732 11.4514 6.47106 11.4629 6.48492C12.6095 7.86918 14.6875 10.378 14.4313 13.3202C14.1207 16.8322 10.6523 18.6741 7.36504 18.6741C4.36254 18.6741 0.790592 17.2251 0.531755 13.1238C0.41214 11.3079 0.457562 9.54886 1.33227 7.76637Z" fill-rule="evenodd"/>
	</g>
	<defs>
		<clipPath id="clip_1">
			<rect x="-214.83826" y="-191.73523" width="371.77499" height="1364.1664" clip-rule="evenodd"/>
		</clipPath>
	</defs>
	<g clip-path="url(#clip_1)">
		<path fill="none" stroke="#000" stroke-width="0.60000002" stroke-miterlimit="4" transform="matrix(0.9914 0 0 0.9914 0.295654 0.596436)" d="M0.0140822 13.1729C0.272919 17.2988 3.89663 19.1653 7.36504 19.1653C10.8593 19.1653 14.6125 17.176 14.9748 13.3693C15.2592 10.2051 13.0648 7.57978 11.8731 6.15416L11.8688 6.14898L11.7394 6.00162C10.1087 4.08601 9.66868 2.21953 10.3675 0.328478C10.3934 0.2548 10.3675 0.156564 10.3158 0.0828868C10.2381 0.00920965 10.1605 -0.0153494 10.0569 0.00920965C8.01213 0.451273 5.17363 3.15277 5.07009 6.14898C4.21547 5.0369 4.49405 3.30384 4.52835 3.09049C4.53041 3.07768 4.53159 3.07035 4.53159 3.06896C4.58335 2.94617 4.53159 2.82337 4.42805 2.77425C4.32452 2.70058 4.1951 2.72514 4.11745 2.79881C1.91734 4.83722 -0.192987 9.83284 0.0140822 13.1729ZM1.33227 7.76637C1.97179 6.46313 3.00384 4.78519 3.73627 3.9554C3.65862 4.79041 4.05193 6.29633 5.16493 7.1559C5.24258 7.20502 5.34611 7.22957 5.44965 7.18046C5.5273 7.13134 5.57907 7.0331 5.57907 6.93487C5.29435 4.23337 7.75329 1.35996 9.69457 0.598627C9.17689 2.51423 9.69457 4.38072 11.2994 6.29633L11.4288 6.44368C11.4401 6.45732 11.4514 6.47106 11.4629 6.48492C12.6095 7.86918 14.6875 10.378 14.4313 13.3202C14.1207 16.8322 10.6523 18.6741 7.36504 18.6741C4.36254 18.6741 0.790592 17.2251 0.531755 13.1238C0.41214 11.3079 0.457562 9.54886 1.33227 7.76637Z" fill-rule="evenodd"/>
	</g>
</svg>
