<?xml version="1.0" encoding="utf-8" ?>
<svg xmlns="http://www.w3.org/2000/svg" xmlns:xlink="http://www.w3.org/1999/xlink" width="30" height="28">
	<defs>
		<clipPath id="clip_0">
			<rect x="-313.71997" y="-17.640015" width="367.5" height="796.73999" clip-rule="evenodd"/>
		</clipPath>
	</defs>
	<g clip-path="url(#clip_0)">
		<path fill="rgb(0,0,0)" stroke="none" transform="matrix(0.98 0 0 0.98 0.859985 0.97998)" d="M8.55612 4.60839L27.9612 6.01389L27.958 6.02361C28.3412 6.05243 28.6918 6.24989 28.915 6.56262C29.1383 6.87535 29.2113 7.27108 29.1141 7.64286L27.4463 13.7183C26.7164 16.394 24.2868 18.2507 21.5134 18.2522L10.8814 18.2522L11.1437 19.7808L25.0692 19.7808C26.7315 19.7796 28.2042 20.8521 28.713 22.4346C29.2219 24.017 28.6504 25.747 27.299 26.7149C25.9476 27.6827 24.1258 27.6669 22.7914 26.6757C21.457 25.6845 20.9156 23.9449 21.4518 22.3716L14.0842 22.3716C14.7457 24.2931 13.7917 26.3968 11.9103 27.1652C10.029 27.9336 7.87498 27.0994 7.00202 25.2642C6.12907 23.429 6.84093 21.2316 8.62413 20.2568L8.14483 17.4393C8.08067 17.2831 8.04767 17.1159 8.04767 16.9471L8.04767 16.8953L5.69976 3.12839C5.64559 2.81421 5.37084 2.58616 5.05206 2.5908L1.2954 2.5908C0.57997 2.5908 0 2.01083 0 1.2954C0 0.57997 0.57997 0 1.2954 0L5.03911 0C6.618 -0.000336232 7.96701 1.13798 8.23227 2.69443L8.55612 4.60839ZM21.5134 15.6614C23.1151 15.655 24.5156 14.5804 24.9364 13.035L26.1995 8.48487L9.00303 7.24129L10.4409 15.6614L21.5134 15.6614ZM10.4409 24.8425C11.1224 24.8425 11.6748 24.2901 11.6748 23.6087C11.673 22.928 11.1216 22.3766 10.4409 22.3748C9.75948 22.3748 9.20706 22.9272 9.20706 23.6087C9.20706 24.2901 9.75948 24.8425 10.4409 24.8425ZM25.0692 24.8425C24.3878 24.8425 23.8354 24.2901 23.8354 23.6087C23.8354 22.9272 24.3878 22.3748 25.0692 22.3748C25.7507 22.3748 26.3031 22.9272 26.3031 23.6087C26.3031 24.2906 25.7512 24.844 25.0692 24.8458L25.0692 24.8425Z" fill-rule="evenodd"/>
	</g>
</svg>
