<?xml version="1.0" encoding="utf-8" ?>
<svg xmlns="http://www.w3.org/2000/svg" xmlns:xlink="http://www.w3.org/1999/xlink" width="50" height="50">
	<defs>
		<clipPath id="clip_0">
			<rect x="-163" y="-26" width="375" height="667" clip-rule="evenodd"/>
		</clipPath>
	</defs>
	<g clip-path="url(#clip_0)">
		<path fill="rgb(0,0,0)" stroke="none" transform="translate(0 0.546387)" d="M14.7438 3.27849C11.68 3.27849 8.79868 4.47221 6.63087 6.63947C2.15757 11.1128 2.15757 18.3914 6.63087 22.8647C10.5038 26.7371 13.6522 27.3976 16.9853 28.0974C20.0497 28.7405 23.2031 29.4026 26.8246 32.2938L27.6398 28.9371C27.7834 28.3466 28.2413 27.8844 28.8302 27.7352L32.3032 26.8556C29.3967 23.2248 28.7335 20.0654 28.0888 16.994C27.3895 13.6603 26.7285 10.5118 22.8556 6.63947C20.6889 4.47221 17.8081 3.27849 14.7438 3.27849M27.7703 36.9829C27.3415 36.9829 26.923 36.8146 26.6116 36.5026C22.7693 32.6603 19.6334 32.002 16.3123 31.3055C12.8262 30.5739 8.87572 29.7446 4.31336 25.1823C-1.43779 19.4311 -1.43779 10.0731 4.31336 4.32142C7.10016 1.53462 10.8042 0 14.7438 0C18.6833 0 22.3874 1.53462 25.1737 4.32142C29.7365 8.88377 30.5659 12.8348 31.2974 16.3203C31.994 19.6409 32.6523 22.7768 36.4946 26.6196C36.912 27.0365 37.0726 27.6451 36.9158 28.2133C36.759 28.782 36.3094 29.2223 35.7379 29.3671L30.5921 30.6701L29.3629 35.7307C29.223 36.3065 28.7832 36.7621 28.2134 36.9222C28.067 36.9626 27.9184 36.9829 27.7703 36.9829"/>
	</g>
	<defs>
		<clipPath id="clip_1">
			<rect x="-163" y="-26" width="375" height="667" clip-rule="evenodd"/>
		</clipPath>
	</defs>
	<g clip-path="url(#clip_1)">
		<path fill="rgb(0,0,0)" stroke="none" transform="translate(26.6253 27.179)" d="M11.9191 22.4268C10.3255 22.4268 8.73237 21.822 7.51899 20.6119C6.37062 19.4679 5.61013 17.8311 5.43203 16.1211C5.30037 14.858 5.50578 13.6534 6.00567 12.6432L0.481244 7.12864C-0.159594 6.48944 -0.160687 5.45143 0.479605 4.81059C1.11826 4.16975 2.15627 4.16866 2.79656 4.8084L9.28689 11.2867C9.92773 11.9259 9.92882 12.9639 9.29017 13.6048C8.81542 14.0801 8.59743 14.8733 8.69195 15.7808C8.79192 16.7401 9.2186 17.6782 9.83322 18.2906C10.9838 19.4373 12.8549 19.4373 14.0049 18.2906C14.5207 17.7765 14.8239 17.0876 14.8589 16.3495C14.8987 15.5147 15.5603 14.8433 16.3951 14.7908C17.1119 14.746 17.7844 14.4456 18.2898 13.9424C18.8459 13.3879 19.1524 12.6503 19.1524 11.8669C19.1524 11.0829 18.8465 10.3465 18.2909 9.79252C17.1354 8.64032 14.6862 8.15245 13.5826 9.24892C12.9429 9.88484 11.9087 9.88375 11.2706 9.24619L4.81141 2.79957C4.17057 2.16037 4.16948 1.12235 4.80922 0.481517C5.44842 -0.159868 6.48534 -0.160414 7.12727 0.479332L12.62 5.96115C15.1741 4.6975 18.6503 5.5219 20.6062 7.47064C21.783 8.64469 22.4309 10.2061 22.4309 11.8669C22.4304 13.5283 21.7819 15.0891 20.604 16.2637C19.8544 17.0105 18.9317 17.547 17.927 17.8344C17.6462 18.8806 17.096 19.8383 16.3203 20.6119C15.1063 21.822 13.5127 22.4268 11.9191 22.4268"/>
	</g>
</svg>
