<?xml version="1.0" encoding="utf-8" ?>
<svg xmlns="http://www.w3.org/2000/svg" xmlns:xlink="http://www.w3.org/1999/xlink" width="43" height="47">
	<defs>
		<clipPath id="clip_0">
			<rect x="1" y="0.00036621094" width="41.705086" height="46.432518" clip-rule="evenodd"/>
		</clipPath>
	</defs>
	<g clip-path="url(#clip_0)">
		<path fill="rgb(0,0,0)" stroke="none" transform="translate(0.999695 0)" d="M41.274 8.12907C41.5431 8.44468 41.7091 8.84893 41.7053 9.29593L41.5425 27.2258C41.54 27.4924 41.4752 27.7413 41.3684 27.967C41.3445 28.3757 41.1879 28.778 40.8824 29.0962L24.909 45.7221C24.7185 45.9201 24.4922 46.0597 24.2508 46.1502C23.9584 46.3363 23.6284 46.4331 23.2989 46.4331C22.7941 46.4331 22.2924 46.22 21.9403 45.8051L21.9259 45.7887C21.8165 45.6869 21.7171 45.5743 21.636 45.4473L0.587833 20.7043C0.457692 20.5509 0.365902 20.3799 0.295488 20.2026C0.110022 19.9216 0 19.5852 0 19.2231L0 1.78236C0 0.798447 0.798447 0 1.78236 0C1.84586 0 1.90558 0.012574 1.9672 0.0182323C2.14135 -0.000628698 2.31927 0.00440089 2.49845 0.0389793L40.0512 7.21494C40.5837 7.31679 41.0226 7.66132 41.274 8.12907ZM36.2281 10.1126L23.3555 24.0333L6.7868 4.48702L36.2281 10.1126ZM21.4782 31.2023L3.56409 9.90389L3.56409 6.19708L21.5141 27.3729L21.4782 31.2023ZM25.0781 27.4207L38.1042 13.3341L37.9803 26.9724L24.9543 40.5303L25.0781 27.4207ZM21.2821 36.506L3.56409 15.4415L3.56409 18.7019L21.3984 39.6665L21.4267 36.6437C21.3783 36.5978 21.3254 36.5582 21.2821 36.506Z" fill-rule="evenodd"/>
	</g>
</svg>
