<?xml version="1.0" encoding="utf-8" ?>
<svg xmlns="http://www.w3.org/2000/svg" xmlns:xlink="http://www.w3.org/1999/xlink" width="77" height="39">
	<defs>
		<clipPath id="clip_0">
			<rect x="-143.85999" y="-10.319946" width="371.25" height="804.87" clip-rule="evenodd"/>
		</clipPath>
	</defs>
	<g clip-path="url(#clip_0)">
		<path fill="rgb(35,31,32)" stroke="none" transform="matrix(0.99 0 0 0.99 0.680176 14.2966)" d="M6.28207 2.82599C7.41266 2.82599 8.60804 3.34762 8.78176 4.65193L3.73873 4.65193C3.95611 3.36922 5.15196 2.82599 6.28207 2.82599M11.0645 8.89068L10.7598 8.49911C10.325 7.93429 9.78182 7.89062 9.12966 8.21646C8.32539 8.65123 7.54271 8.78223 6.89056 8.78223C4.82565 8.78223 3.67346 7.60844 3.67346 6.60838L11.173 6.60838C11.912 6.60838 12.3904 6.32574 12.3684 5.65199C12.3036 2.04332 9.65129 0 6.26048 0C2.3039 0 0 2.80393 0 5.93417C0 9.17333 2.45602 11.7815 6.58632 11.7815C8.02115 11.7815 9.54284 11.4556 10.8255 10.5861C11.4988 10.1297 11.5209 9.45551 11.0645 8.89068"/>
	</g>
	<defs>
		<clipPath id="clip_1">
			<rect x="-143.85999" y="-10.319946" width="371.25" height="804.87" clip-rule="evenodd"/>
		</clipPath>
	</defs>
	<g clip-path="url(#clip_1)">
		<path fill="rgb(35,31,32)" stroke="none" transform="matrix(0.99 0 0 0.99 14.002 14.2971)" d="M6.36893 3.04291C7.89062 3.04291 8.84702 4.28195 8.84702 5.89003C8.84702 7.49905 7.89062 8.73809 6.36893 8.73809C4.82565 8.73809 3.91291 7.47698 3.91291 5.89003C3.91291 4.30355 4.82565 3.04291 6.36893 3.04291M5.36887 11.781C6.84737 11.781 8.08641 11.1725 8.80335 10.0424L8.80335 10.3687C8.80335 11.1293 9.21652 11.5425 9.9776 11.5425L11.543 11.5425C12.3036 11.5425 12.7167 11.1293 12.7167 10.3687L12.7167 1.41229C12.7167 0.651683 12.3036 0.238512 11.543 0.238512L9.9776 0.238512C9.21652 0.238512 8.80335 0.651683 8.80335 1.41229L8.80335 1.7602C8.08641 0.608018 6.84737 0 5.36887 0C2.2823 0 0 2.52128 0 5.89003C0 9.25972 2.2823 11.781 5.36887 11.781"/>
	</g>
	<defs>
		<clipPath id="clip_2">
			<rect x="-143.85999" y="-10.319946" width="371.25" height="804.87" clip-rule="evenodd"/>
		</clipPath>
	</defs>
	<g clip-path="url(#clip_2)">
		<path fill="rgb(35,31,32)" stroke="none" transform="matrix(0.99 0 0 0.99 28.4142 14.297)" d="M9.37571 8.19487C9.35411 6.71684 8.37611 5.4994 6.00649 4.67305L4.65899 4.1519C4.11529 3.97771 3.76738 3.78239 3.76738 3.39082C3.76738 2.99971 4.11529 2.65134 4.70218 2.65134C5.02849 2.65134 5.3764 2.73866 5.63698 2.97765C6.09335 3.34762 6.41966 3.56501 7.05021 3.39082L7.74556 3.1955C8.52777 2.97765 8.89727 2.34756 8.39771 1.65127C7.52818 0.456366 6.22387 0 4.72378 0C2.2025 0 0.332902 1.45596 0.332902 3.6298C0.332902 5.91257 2.78939 6.69524 3.68052 6.99902L5.0069 7.47745C5.70224 7.71643 5.91963 7.93382 5.91963 8.26013C5.91963 8.75969 5.4196 9.0428 4.65899 9.0428C4.0505 9.0428 3.5284 8.86862 3.1589 8.52071C2.6368 8.02068 2.37622 7.69484 1.70247 7.84696L0.941859 8.02068C0.18078 8.21646 -0.210324 8.73809 0.115518 9.45551C0.876127 11.0209 2.50674 11.7815 4.65899 11.7815C7.18027 11.7815 9.37571 10.6298 9.37571 8.19487"/>
	</g>
	<defs>
		<clipPath id="clip_3">
			<rect x="8.6727295" y="27.334595" width="10.656166" height="11.663887" clip-rule="evenodd"/>
		</clipPath>
	</defs>
	<g clip-path="url(#clip_3)">
		<path fill="rgb(35,31,32)" stroke="none" transform="matrix(0.99 0 0 0.99 8.67273 27.3346)" d="M6.8037 3.08657C7.13001 3.08657 7.7385 3.13024 8.34699 3.41241C9.0428 3.73873 9.54284 3.73873 9.9776 3.15184L10.434 2.60814C10.9119 2.00012 10.8903 1.36957 10.2382 0.956396C9.0644 0.282177 7.7385 0 6.56472 0C2.63021 0 0 2.6518 0 5.93416C0 9.17333 2.6734 11.7819 6.56472 11.7819C7.69484 11.7819 8.99914 11.5209 10.1081 10.8687C10.8471 10.4556 10.9119 9.78182 10.434 9.17333L9.9992 8.6301C9.56443 8.04274 9.0428 8.04274 8.34699 8.36858C7.7385 8.6517 7.13001 8.6949 6.8037 8.6949C5.12989 8.6949 3.91245 7.54271 3.91245 5.89097C3.91245 4.26035 5.12989 3.08657 6.8037 3.08657"/>
	</g>
	<defs>
		<clipPath id="clip_4">
			<rect x="-143.85999" y="-10.319946" width="371.25" height="804.87" clip-rule="evenodd"/>
		</clipPath>
	</defs>
	<g clip-path="url(#clip_4)">
		<path fill="rgb(35,31,32)" stroke="none" transform="matrix(0.99 0 0 0.99 20.3158 27.3342)" d="M6.391 8.69537C4.82612 8.69537 3.67393 7.47792 3.67393 5.89097C3.67393 4.30402 4.82612 3.10911 6.391 3.10911C7.95588 3.10911 9.12967 4.28289 9.12967 5.89097C9.12967 7.49952 7.95588 8.69537 6.391 8.69537M6.391 0C2.67387 0 0 2.63021 0 5.89097C0 9.1522 2.67387 11.7819 6.391 11.7819C10.1297 11.7819 12.782 9.1522 12.782 5.89097C12.782 2.63021 10.1297 0 6.391 0"/>
	</g>
	<defs>
		<clipPath id="clip_5">
			<rect x="-143.85999" y="-10.319946" width="371.25" height="804.87" clip-rule="evenodd"/>
		</clipPath>
	</defs>
	<g clip-path="url(#clip_5)">
		<path fill="rgb(35,31,32)" stroke="none" transform="matrix(0.99 0 0 0.99 34.068 14.5331)" d="M6.391 21.6257C4.82565 21.6257 3.67346 20.4083 3.67346 18.8213C3.67346 17.2344 4.82565 16.0395 6.391 16.0395C7.95588 16.0395 9.12966 17.2133 9.12966 18.8213C9.12966 20.4299 7.95588 21.6257 6.391 21.6257M10.6387 14.3553L16.3606 1.36957C16.7081 0.565762 16.3386 0 15.469 0L13.8168 0C13.1431 0 12.7083 0.304713 12.4693 0.934799L10.4039 6.391L8.42587 0.956866C8.20895 0.304713 7.77371 0 7.07837 0L5.3177 0C4.42656 0 4.05705 0.565762 4.42656 1.36957L8.5132 10.3687L7.37745 13.0013C7.05724 12.9595 6.73046 12.9304 6.391 12.9304C2.67387 12.9304 0 15.5606 0 18.8213C0 22.0826 2.67387 24.7123 6.391 24.7123C10.1293 24.7123 12.7815 22.0826 12.7815 18.8213C12.7815 17.0311 11.9782 15.4343 10.6387 14.3553"/>
	</g>
	<defs>
		<clipPath id="clip_6">
			<rect x="48.465332" y="23.202637" width="12.226929" height="15.795784" clip-rule="evenodd"/>
		</clipPath>
	</defs>
	<g clip-path="url(#clip_6)">
		<path fill="rgb(35,31,32)" stroke="none" transform="matrix(0.99 0 0 0.99 48.4653 23.2026)" d="M12.2599 14.1732L11.7387 13.0862C11.5214 12.6515 11.195 12.5857 10.7166 12.6947C10.5208 12.7599 10.3034 12.7815 10.195 12.7815C9.65176 12.7815 9.19493 12.5857 8.71696 11.7815L7.43426 9.65129L10.2823 5.84731C10.8687 5.04303 10.5429 4.41295 9.56443 4.41295L7.80376 4.41295C7.17368 4.41295 6.76051 4.65193 6.4126 5.17355L3.91291 8.97754L3.91291 1.17378C3.91291 0.412701 3.49974 0 2.73913 0L1.17378 0C0.413171 0 0 0.412701 0 1.17378L0 14.5427C0 15.3033 0.413171 15.7165 1.17378 15.7165L2.73913 15.7165C3.49974 15.7165 3.91291 15.3033 3.91291 14.5427L3.91291 10.564L5.19515 13.1294C6.12995 15.0643 7.41266 15.9554 9.32545 15.9554C10.0645 15.9554 10.934 15.8033 11.8035 15.3249C12.3472 15.0427 12.4557 14.6079 12.2599 14.1732"/>
	</g>
	<defs>
		<clipPath id="clip_7">
			<rect x="41.230103" y="1.0349121" width="35.241943" height="36.829594" clip-rule="evenodd"/>
		</clipPath>
	</defs>
	<g clip-path="url(#clip_7)">
		<path fill="rgb(1,2,2)" stroke="none" transform="matrix(0.99 0 0 0.99 41.2301 1.03467)" d="M23.5773 37.2019C22.827 37.2019 22.1082 36.777 21.7683 36.0525C21.3002 35.0543 21.7303 33.866 22.7285 33.3974C28.6542 30.6189 32.1891 24.3758 31.5257 17.8608C31.1083 13.7606 29.119 10.0688 25.9249 7.46487C22.7303 4.86143 18.7122 3.65478 14.6134 4.07499C10.2056 4.52338 6.19927 6.84981 3.62071 10.458C2.97936 11.3553 1.73233 11.5632 0.835566 10.921C-0.061202 10.2801 -0.268726 9.03351 0.372158 8.13627C3.61743 3.59562 8.66046 0.667744 14.2087 0.102451C19.371 -0.424341 24.4262 1.09265 28.4476 4.37032C32.4685 7.64798 34.9724 12.2952 35.4978 17.4561C36.333 25.6561 31.8825 33.5153 24.4234 37.0127C24.1497 37.1409 23.8609 37.2019 23.5773 37.2019"/>
	</g>
	<defs>
		<clipPath id="clip_8">
			<rect x="-143.85999" y="-10.319946" width="371.25" height="804.87" clip-rule="evenodd"/>
		</clipPath>
	</defs>
	<g clip-path="url(#clip_8)">
		<path fill="rgb(1,2,2)" stroke="none" transform="matrix(0.99 0 0 0.99 54.9926 14.2866)" d="M8.53761 4.4538L2.57058 0.296739C1.48601 -0.459175 0 0.316459 0 1.63814L0 9.9532C0 11.2744 1.48601 12.0505 2.57058 11.2951L8.53761 7.13753C9.47147 6.48679 9.47147 5.10454 8.53761 4.4538"/>
	</g>
</svg>
