<?xml version="1.0" encoding="utf-8" ?>
<svg xmlns="http://www.w3.org/2000/svg" xmlns:xlink="http://www.w3.org/1999/xlink" width="164" height="83">
	<defs>
		<clipPath id="clip_0">
			<rect x="-107" y="-278" width="375" height="667" clip-rule="evenodd"/>
		</clipPath>
	</defs>
	<g clip-path="url(#clip_0)">
		<path fill="rgb(35,31,32)" stroke="none" transform="translate(0.000427246 29.5313)" d="M13.38 6.019C15.788 6.019 18.334 7.13 18.704 9.908L7.963 9.908C8.426 7.176 10.973 6.019 13.38 6.019M23.566 18.936L22.917 18.102C21.991 16.899 20.834 16.806 19.445 17.5C17.732 18.426 16.065 18.705 14.676 18.705C10.278 18.705 7.824 16.205 7.824 14.075L23.797 14.075C25.371 14.075 26.39 13.473 26.343 12.038C26.205 4.352 20.556 0 13.334 0C4.907 0 0 5.972 0 12.639C0 19.538 5.231 25.093 14.028 25.093C17.084 25.093 20.325 24.399 23.057 22.547C24.491 21.575 24.538 20.139 23.566 18.936"/>
	</g>
	<defs>
		<clipPath id="clip_1">
			<rect x="-107" y="-278" width="375" height="667" clip-rule="evenodd"/>
		</clipPath>
	</defs>
	<g clip-path="url(#clip_1)">
		<path fill="rgb(35,31,32)" stroke="none" transform="translate(28.6606 29.5321)" d="M13.565 6.481C16.806 6.481 18.843 9.12 18.843 12.545C18.843 15.972 16.806 18.611 13.565 18.611C10.278 18.611 8.334 15.925 8.334 12.545C8.334 9.166 10.278 6.481 13.565 6.481M11.435 25.092C14.584 25.092 17.223 23.796 18.75 21.389L18.75 22.084C18.75 23.704 19.63 24.584 21.251 24.584L24.585 24.584C26.205 24.584 27.085 23.704 27.085 22.084L27.085 3.008C27.085 1.388 26.205 0.508 24.585 0.508L21.251 0.508C19.63 0.508 18.75 1.388 18.75 3.008L18.75 3.749C17.223 1.295 14.584 0 11.435 0C4.861 0 0 5.37 0 12.545C0 19.722 4.861 25.092 11.435 25.092"/>
	</g>
	<defs>
		<clipPath id="clip_2">
			<rect x="-107" y="-278" width="375" height="667" clip-rule="evenodd"/>
		</clipPath>
	</defs>
	<g clip-path="url(#clip_2)">
		<path fill="rgb(35,31,32)" stroke="none" transform="translate(59.6667 29.5317)" d="M19.969 17.454C19.923 14.306 17.84 11.713 12.793 9.953L9.92304 8.843C8.76504 8.472 8.02404 8.056 8.02404 7.222C8.02404 6.389 8.76504 5.647 10.015 5.647C10.71 5.647 11.451 5.833 12.006 6.342C12.978 7.13 13.673 7.593 15.016 7.222L16.497 6.806C18.163 6.342 18.95 5 17.886 3.517C16.034 0.972 13.256 0 10.061 0C4.69104 0 0.709038 3.101 0.709038 7.731C0.709038 12.593 5.94104 14.26 7.83904 14.907L10.664 15.926C12.145 16.435 12.608 16.898 12.608 17.593C12.608 18.657 11.543 19.26 9.92304 19.26C8.62704 19.26 7.51504 18.889 6.72804 18.148C5.61604 17.083 5.06104 16.389 3.62604 16.713L2.00604 17.083C0.385038 17.5 -0.447962 18.611 0.246038 20.139C1.86604 23.473 5.33904 25.093 9.92304 25.093C15.293 25.093 19.969 22.64 19.969 17.454"/>
	</g>
	<defs>
		<clipPath id="clip_3">
			<rect x="17.195618" y="57.580688" width="22.925507" height="25.093498" clip-rule="evenodd"/>
		</clipPath>
	</defs>
	<g clip-path="url(#clip_3)">
		<path fill="rgb(35,31,32)" stroke="none" transform="translate(17.1956 57.5807)" d="M14.491 6.574C15.186 6.574 16.482 6.667 17.778 7.268C19.26 7.963 20.325 7.963 21.251 6.713L22.223 5.555C23.241 4.26 23.195 2.917 21.806 2.037C19.306 0.601 16.482 0 13.982 0C5.602 0 0 5.648 0 12.639C0 19.538 5.694 25.094 13.982 25.094C16.389 25.094 19.167 24.538 21.529 23.149C23.103 22.269 23.241 20.834 22.223 19.538L21.297 18.381C20.371 17.13 19.26 17.13 17.778 17.824C16.482 18.427 15.186 18.519 14.491 18.519C10.926 18.519 8.333 16.065 8.333 12.547C8.333 9.074 10.926 6.574 14.491 6.574"/>
	</g>
	<defs>
		<clipPath id="clip_4">
			<rect x="-107" y="-278" width="375" height="667" clip-rule="evenodd"/>
		</clipPath>
	</defs>
	<g clip-path="url(#clip_4)">
		<path fill="rgb(35,31,32)" stroke="none" transform="translate(42.244 57.58)" d="M13.612 18.52C10.279 18.52 7.825 15.927 7.825 12.547C7.825 9.167 10.279 6.622 13.612 6.622C16.945 6.622 19.445 9.122 19.445 12.547C19.445 15.973 16.945 18.52 13.612 18.52M13.612 0C5.695 0 0 5.602 0 12.547C0 19.493 5.695 25.094 13.612 25.094C21.575 25.094 27.224 19.493 27.224 12.547C27.224 5.602 21.575 0 13.612 0"/>
	</g>
	<defs>
		<clipPath id="clip_5">
			<rect x="-107" y="-278" width="375" height="667" clip-rule="evenodd"/>
		</clipPath>
	</defs>
	<g clip-path="url(#clip_5)">
		<path fill="rgb(35,31,32)" stroke="none" transform="translate(71.8304 30.04)" d="M13.612 46.06C10.278 46.06 7.824 43.467 7.824 40.087C7.824 36.707 10.278 34.162 13.612 34.162C16.945 34.162 19.445 36.662 19.445 40.087C19.445 43.513 16.945 46.06 13.612 46.06M22.659 30.575L34.846 2.917C35.586 1.205 34.799 0 32.947 0L29.428 0C27.993 0 27.067 0.649 26.558 1.991L22.159 13.612L17.946 2.038C17.484 0.649 16.557 0 15.076 0L11.326 0C9.428 0 8.641 1.205 9.428 2.917L18.132 22.084L15.713 27.691C15.031 27.602 14.335 27.54 13.612 27.54C5.695 27.54 0 33.142 0 40.087C0 47.033 5.695 52.634 13.612 52.634C21.574 52.634 27.223 47.033 27.223 40.087C27.223 36.274 25.512 32.873 22.659 30.575"/>
	</g>
	<defs>
		<clipPath id="clip_6">
			<rect x="102.80463" y="48.691406" width="26.30481" height="33.982803" clip-rule="evenodd"/>
		</clipPath>
	</defs>
	<g clip-path="url(#clip_6)">
		<path fill="rgb(35,31,32)" stroke="none" transform="translate(102.805 48.6914)" d="M26.112 30.187L25.002 27.872C24.539 26.946 23.844 26.806 22.825 27.038C22.408 27.177 21.945 27.223 21.714 27.223C20.557 27.223 19.584 26.806 18.566 25.093L15.834 20.556L21.9 12.454C23.149 10.741 22.455 9.399 20.371 9.399L16.621 9.399C15.279 9.399 14.399 9.908 13.658 11.019L8.334 19.121L8.334 2.5C8.334 0.879 7.454 0 5.834 0L2.5 0C0.88 0 0 0.879 0 2.5L0 30.974C0 32.594 0.88 33.474 2.5 33.474L5.834 33.474C7.454 33.474 8.334 32.594 8.334 30.974L8.334 22.5L11.065 27.964C13.056 32.085 15.788 33.983 19.862 33.983C21.436 33.983 23.288 33.659 25.14 32.64C26.298 32.039 26.529 31.113 26.112 30.187"/>
	</g>
	<defs>
		<clipPath id="clip_7">
			<rect x="87.238953" y="1.0002441" width="75.818939" height="79.234596" clip-rule="evenodd"/>
		</clipPath>
	</defs>
	<g clip-path="url(#clip_7)">
		<path fill="rgb(1,2,2)" stroke="none" transform="translate(87.239 0.999634)" d="M50.2166 79.2352C48.6186 79.2352 47.0876 78.3302 46.3636 76.7872C45.3666 74.6612 46.2826 72.1302 48.4086 71.1322C61.0296 65.2142 68.5586 51.9172 67.1456 38.0412C66.2566 29.3082 62.0196 21.4452 55.2166 15.8992C48.4126 10.3542 39.8546 7.78421 31.1246 8.67921C21.7366 9.63421 13.2036 14.5892 7.71165 22.2742C6.34565 24.1852 3.68965 24.6282 1.77965 23.2602C-0.130352 21.8952 -0.572352 19.2402 0.792648 17.3292C7.70465 7.65821 18.4456 1.42221 30.2626 0.218208C41.2576 -0.903792 52.0246 2.32721 60.5896 9.30821C69.1536 16.2892 74.4866 26.1872 75.6056 37.1792C77.3847 54.6442 67.9056 71.3832 52.0186 78.8322C51.4356 79.1052 50.8206 79.2352 50.2166 79.2352"/>
	</g>
	<defs>
		<clipPath id="clip_8">
			<rect x="-107" y="-278" width="375" height="667" clip-rule="evenodd"/>
		</clipPath>
	</defs>
	<g clip-path="url(#clip_8)">
		<path fill="rgb(1,2,2)" stroke="none" transform="translate(116.847 29.5096)" d="M18.184 9.48602L5.475 0.632016C3.165 -0.977984 0 0.674016 0 3.48902L0 21.199C0 24.013 3.165 25.666 5.475 24.057L18.184 15.202C20.173 13.816 20.173 10.872 18.184 9.48602"/>
	</g>
</svg>
