<?xml version="1.0" encoding="utf-8" ?>
<svg xmlns="http://www.w3.org/2000/svg" xmlns:xlink="http://www.w3.org/1999/xlink" width="51" height="40">
	<defs>
		<clipPath id="clip_0">
			<rect x="-162" y="-508" width="375" height="667" clip-rule="evenodd"/>
		</clipPath>
	</defs>
	<g clip-path="url(#clip_0)">
		<path fill="rgb(0,0,0)" stroke="none" d="M25.2674 30.8613C12.4124 30.8613 2.80748 24.2311 2.80748 18.3028C2.80748 14.5672 5.68852 12.6126 8.53419 12.6126L11.0834 12.6126C13.2766 12.6126 15.4771 11.6671 17.12 10.0185L19.4261 7.70403C24.8855 2.22663 33.4624 1.21649 39.8202 5.30194C44.8456 8.53111 47.7272 13.2196 47.7272 18.1658C47.7272 24.1587 38.1223 30.8613 25.2674 30.8613M25.2674 36.538C13.3462 36.538 4.22526 30.8354 2.96302 25.2789C7.29609 30.1718 15.8763 33.6688 25.2674 33.6688C34.7465 33.6688 43.2044 30.2672 47.5161 25.3872C46.0596 30.9303 37.0257 36.538 25.2674 36.538M41.3385 2.94085C33.8757 -1.85545 23.8237 -0.685295 17.4384 5.72307L15.1323 8.03756C14.0121 9.16111 12.5365 9.80571 11.0839 9.80571L8.53475 9.80571C3.66882 9.80515 0 13.4582 0 18.3028L0 23.9796C0 32.1651 11.8072 39.3455 25.2674 39.3455C38.9639 39.3455 50.5347 32.2459 50.5347 23.8426L50.5347 18.1658C50.5347 12.2454 47.1826 6.69558 41.3385 2.94085"/>
	</g>
	<defs>
		<clipPath id="clip_1">
			<rect x="-162" y="-508" width="375" height="667" clip-rule="evenodd"/>
		</clipPath>
	</defs>
	<g clip-path="url(#clip_1)">
		<path fill="rgb(0,0,0)" stroke="none" transform="translate(23.8636 6.99768)" d="M7.01871 8.42245C4.73623 8.42245 2.80748 7.13662 2.80748 5.61497C2.80748 4.09331 4.73623 2.80748 7.01871 2.80748C9.30119 2.80748 11.2299 4.09331 11.2299 5.61497C11.2299 7.13662 9.30119 8.42245 7.01871 8.42245M7.01871 0C3.14831 0 0 2.51887 0 5.61497C0 8.71106 3.14831 11.2299 7.01871 11.2299C10.8891 11.2299 14.0374 8.71106 14.0374 5.61497C14.0374 2.51887 10.8891 0 7.01871 0"/>
	</g>
</svg>
