<?xml version="1.0" encoding="utf-8" ?>
<svg xmlns="http://www.w3.org/2000/svg" xmlns:xlink="http://www.w3.org/1999/xlink" width="42" height="48">
	<defs>
		<clipPath id="clip_0">
			<rect x="0.00012207031" y="0.49621582" width="41.504093" height="46.299263" clip-rule="evenodd"/>
		</clipPath>
	</defs>
	<g clip-path="url(#clip_0)">
		<path fill="rgb(0,0,0)" stroke="none" transform="translate(0.00012207 0.496216)" d="M40.098 0C40.8743 0 41.5043 0.629483 41.5043 1.40629L41.5043 19.0988C41.5043 19.3944 41.4115 19.6687 41.2553 19.8954C41.1992 20.0532 41.1179 20.205 41.0033 20.3399L38.2046 23.6297C37.9149 24.157 37.5448 24.5965 37.1133 24.913L19.6286 45.4686C19.5577 45.5812 19.4709 45.6809 19.3717 45.7697L19.3429 45.804C19.0646 46.1314 18.6688 46.2995 18.2714 46.2995C17.9966 46.2995 17.7228 46.2142 17.4837 46.0515C17.2799 45.9806 17.0869 45.868 16.9272 45.7013L0.722802 28.8357C0.458409 28.5609 0.329933 28.2057 0.332413 27.8525C0.23122 27.6601 0.167726 27.4453 0.165246 27.2131L6.21033e-05 9.02458C-0.00341022 8.65552 0.138955 8.32069 0.369617 8.0677C0.563571 7.68079 0.918245 7.39407 1.35129 7.31123L23.2334 3.13005C23.4016 3.09037 23.5742 3.05714 23.7513 3.03085L39.4467 0.031747C39.5985 0.00248023 39.7503 0.000496047 39.8971 0.0203379C39.9636 0.010417 40.029 0 40.098 0ZM24.7205 10.0881C22.0707 10.0881 19.9902 8.57516 19.9188 6.62619L4.36775 9.59751L18.2263 24.5836L36.0632 3.54128L29.0054 4.89003C29.3382 5.37715 29.5282 5.93123 29.5282 6.5245C29.5282 8.52258 27.4161 10.0881 24.7205 10.0881ZM32.0055 20.8766C32.0055 18.2947 33.514 16.2723 35.4396 16.2723C36.8305 16.2723 38.0002 17.3304 38.5449 18.89L38.6917 18.7168L38.6917 4.78983L25.1933 20.7134C27.4314 20.8369 29.1612 23.2963 29.1612 26.4229C29.1612 29.6309 27.3417 32.1433 25.0187 32.1433C22.6962 32.1433 20.8767 29.6309 20.8767 26.4229C20.8767 26.2032 20.8866 25.9869 20.9035 25.7746L19.6787 27.2196L19.8072 40.9174L33.5616 24.7483C32.6196 23.9357 32.0055 22.521 32.0055 20.8766ZM26.7161 6.52252C26.6874 6.35089 26.0083 5.77349 24.7205 5.77349C24.4958 5.77349 24.2964 5.79581 24.1089 5.82557L23.8207 5.88063C23.1183 6.05574 22.7453 6.39801 22.724 6.52649C22.7537 6.69812 23.4333 7.27552 24.7205 7.27552C26.0073 7.27552 26.6869 6.69812 26.7161 6.52252ZM6.91297 22.1971C8.91154 22.1971 10.4766 24.3088 10.4766 27.0048C10.4766 29.4627 9.17445 31.4295 7.43084 31.7589L17.0021 41.721L16.8661 27.2553L2.84043 12.0882L2.97733 27.1233L3.3707 27.5326C3.35681 27.3595 3.34937 27.1834 3.34937 27.0048C3.34937 24.3088 4.91489 22.1971 6.91297 22.1971ZM35.3771 22.6138C35.1673 22.4278 34.8181 21.8211 34.8181 20.8766C34.8181 19.7848 35.2854 19.1419 35.4163 19.0814C35.5944 19.1419 36.0612 19.7848 36.0612 20.8766C36.0612 21.3667 35.9659 21.7606 35.8499 22.0572L35.3771 22.6138ZM25.0187 23.5146C25.4879 23.5146 26.3486 24.6183 26.3486 26.4229C26.3486 28.227 25.4879 29.3307 25.0187 29.3307C24.5499 29.3307 23.6893 28.227 23.6893 26.4229C23.6893 24.6183 24.5499 23.5146 25.0187 23.5146ZM6.16195 27.0048C6.16195 25.7161 6.73935 25.038 6.91098 25.0092C7.08659 25.0385 7.66398 25.7175 7.66398 27.0048C7.66398 28.292 7.08659 28.9716 6.91446 29.0009C6.73935 28.9721 6.16195 28.294 6.16195 27.0048Z" fill-rule="evenodd"/>
	</g>
	<defs>
		<clipPath id="clip_1">
			<rect x="-167" y="-593" width="375" height="667" clip-rule="evenodd"/>
		</clipPath>
	</defs>
	<g clip-path="url(#clip_1)">
		<path fill="rgb(0,0,0)" stroke="none" transform="translate(10.8106 10.4093)" d="M6.21249 6.09592C4.13653 6.09592 2.81258 5.12367 2.81258 4.454C2.81258 3.78484 4.13653 2.81258 6.21249 2.81258C8.28844 2.81258 9.61239 3.78484 9.61239 4.454C9.61239 5.12367 8.28844 6.09592 6.21249 6.09592M12.425 4.454C12.425 1.95641 9.69573 0 6.21249 0C2.72925 0 0 1.95641 0 4.454C0 6.95209 2.72925 8.9085 6.21249 8.9085C9.69573 8.9085 12.425 6.95209 12.425 4.454"/>
	</g>
</svg>
