<?xml version="1.0" encoding="utf-8" ?>
<svg xmlns="http://www.w3.org/2000/svg" xmlns:xlink="http://www.w3.org/1999/xlink" width="46" height="44">
	<defs>
		<clipPath id="clip_0">
			<rect x="-160.70001" y="-112.64001" width="367.5" height="653.66003" clip-rule="evenodd"/>
		</clipPath>
	</defs>
	<g clip-path="url(#clip_0)">
		<path fill="rgb(0,0,0)" stroke="none" transform="matrix(0.98 0 0 0.98 1 0.0600586)" d="M38.3344 21.6556L38.3344 21.6561C36.7246 23.4778 34.4602 24.5973 31.9586 24.8099C29.8623 24.9894 27.8149 24.5031 26.071 23.4495C29.3101 18.9206 32.9097 16.0251 32.9845 15.9664C33.676 15.4213 33.7687 14.4498 33.1924 13.796C32.6155 13.1416 31.5855 13.0535 30.894 13.598C30.7305 13.7264 27.0659 16.6392 23.6275 21.3248C22.5687 20.0101 21.9124 18.443 21.7518 16.7573C21.5266 14.3938 22.2895 12.0891 23.8993 10.2674C29.5376 3.88845 38.4869 3.14541 41.6743 3.09265C42.383 6.23234 43.8322 15.436 38.3344 21.6556M10.3439 21.6512C9.65133 21.1056 8.62189 21.1959 8.04557 21.8503C7.46925 22.5052 7.5631 23.4773 8.2563 24.0217C8.29429 24.0517 10.3722 25.6998 12.6913 28.1514C11.8236 28.6307 10.8247 28.8569 9.79814 28.8042C8.42672 28.7269 7.16929 28.1503 6.25673 27.1799C3.12007 23.8439 3.1431 19.3574 3.35613 17.2996C5.69884 17.2321 10.8961 17.4829 13.9464 20.727C14.8584 21.6969 15.3161 22.9447 15.2349 24.2404C15.2004 24.7871 15.0668 25.3125 14.8526 25.8043C12.5231 23.3788 10.5034 21.7769 10.3439 21.6512M44.5305 1.13714L44.2127 0.105262L43.0785 0.0296526C42.5246 -0.0057043 29.4017 -0.768869 21.3942 8.2912C19.2254 10.745 18.1977 13.8493 18.5005 17.0336C18.7533 19.6908 19.918 22.1293 21.8024 24.0571C20.4845 26.2248 19.4822 28.4006 18.8005 30.5639C18.2622 29.7887 17.6905 29.043 17.1072 28.3337C17.9184 27.1794 18.4044 25.8429 18.4936 24.4226C18.626 22.3045 17.8776 20.2647 16.3864 18.6785C11.2127 13.177 2.09582 14.2709 1.71065 14.3214L0.583343 14.4651L0.336348 15.5138C0.259198 15.8413 -1.48876 23.586 3.81673 29.2285C5.30791 30.8146 7.36389 31.7567 9.60527 31.8824C9.77511 31.8916 9.9438 31.896 10.1125 31.896C11.7919 31.896 13.4035 31.4211 14.7841 30.5416C15.9506 31.9896 17.0387 33.5822 17.82 35.2146C17.5598 37.7816 17.7711 40.305 18.4631 42.7429C18.6589 43.4316 19.3181 43.8852 20.0383 43.8852C20.1782 43.8852 20.321 43.8684 20.4621 43.833C21.3332 43.6116 21.8496 42.7663 21.6159 41.9439C19.9554 36.0953 21.7495 30.5405 24.3639 26.0763C26.3813 27.2838 28.6958 27.9306 31.0949 27.9306C31.4784 27.9306 31.8641 27.9143 32.251 27.8816C35.6209 27.5955 38.6712 26.0866 40.84 23.6323L40.84 23.6328C48.6264 14.8224 44.7015 1.69197 44.5305 1.13714"/>
	</g>
</svg>
